# xmcd
#
# Track frame offsets:
#	150
#	11503
#	24172
#	36533
#	47253
#	59682
#	71995
#	84529
#	96017
#	106670
#	119166
#	130510
#	140692
#	152122
#	164359
#	178919
#	188199
#	197632
#	208342
#	221807
#	232555
#	243774
#	253447
#	266020
#	275703
#	286932
#	298266
#	308496
#	319225
#	329071
#	339647
#
# Disc length: 4713 seconds
#
# Revision: 0
# Processed by: cddbd v1.5.1PL2 Copyright (c) Steve Scherf et al.
# Submitted via: EasyCDDAExtractor 4.6.9.1
#
DISCID=e412671f
DTITLE=Wanda Jackson - Tears Will Be The Chaser For Your Wine - CD 4
DYEAR=1997
DGENRE=Country
TTITLE0=Together Again
TTITLE1=Swinging Doors
TTITLE2=The Hurin's All Over
TTITLE3=I Betcha My Heart I Love You
TTITLE4=There Stands The Glass
TTITLE5=Don't Touch Me
TTITLE6=The Pain Of It All
TTITLE7=Two Separate Barstools
TTITLE8=Today I Started Loving You aga
TTITLE9=I'm A believer
TTITLE10=Walk On Out Of My Mind
TTITLE11=Memphis Tenneessee
TTITLE12=Walk Right In
TTITLE13=If I Had A hammer
TTITLE14=Fever
TTITLE15=Big Daddy
TTITLE16=Love's Gonna Live Here
TTITLE17=You're The Reason I'm Living
TTITLE18=We'll Sing In The Sunshine
TTITLE19=Yours Love
TTITLE20=This Land Is Your Land
TTITLE21=Less Of me
TTITLE22=Please Don't Sell My Daddy No
TTITLE23=He's Got The Whole Wordl In Hi
TTITLE24=Everything is Leaving
TTITLE25=The Hunter
TTITLE26=My Big Iron Skillet
TTITLE27=Just Between Me And You
TTITLE28=Your Good Girls Gonna Go Bad
TTITLE29=Try A Little Kindness
TTITLE30=Those Were The Days
EXTD=
EXTT0=
EXTT1=
EXTT2=
EXTT3=
EXTT4=
EXTT5=
EXTT6=
EXTT7=
EXTT8=
EXTT9=
EXTT10=
EXTT11=
EXTT12=
EXTT13=
EXTT14=
EXTT15=
EXTT16=
EXTT17=
EXTT18=
EXTT19=
EXTT20=
EXTT21=
EXTT22=
EXTT23=
EXTT24=
EXTT25=
EXTT26=
EXTT27=
EXTT28=
EXTT29=
EXTT30=
PLAYORDER=
